<svg width="0" height="0" class="hidden">
  <symbol  xmlns="http://www.w3.org/2000/svg" viewBox="0 0 18 20" id="Vector3">
    <path d="M14.625 13.5625C13.957 13.5625 13.3406 13.7969 12.8578 14.1883L8.00156 10.675C8.08288 10.2287 8.08288 9.77133 8.00156 9.325L12.8578 5.81172C13.3406 6.20312 13.957 6.4375 14.625 6.4375C16.1766 6.4375 17.4375 5.17656 17.4375 3.625C17.4375 2.07344 16.1766 0.8125 14.625 0.8125C13.0734 0.8125 11.8125 2.07344 11.8125 3.625C11.8125 3.89687 11.85 4.15703 11.9227 4.40547L7.31016 7.74531C6.62578 6.83828 5.53828 6.25 4.3125 6.25C2.24062 6.25 0.5625 7.92812 0.5625 10C0.5625 12.0719 2.24062 13.75 4.3125 13.75C5.53828 13.75 6.62578 13.1617 7.31016 12.2547L11.9227 15.5945C11.85 15.843 11.8125 16.1055 11.8125 16.375C11.8125 17.9266 13.0734 19.1875 14.625 19.1875C16.1766 19.1875 17.4375 17.9266 17.4375 16.375C17.4375 14.8234 16.1766 13.5625 14.625 13.5625ZM14.625 2.40625C15.2977 2.40625 15.8438 2.95234 15.8438 3.625C15.8438 4.29766 15.2977 4.84375 14.625 4.84375C13.9523 4.84375 13.4062 4.29766 13.4062 3.625C13.4062 2.95234 13.9523 2.40625 14.625 2.40625ZM4.3125 12.0625C3.17578 12.0625 2.25 11.1367 2.25 10C2.25 8.86328 3.17578 7.9375 4.3125 7.9375C5.44922 7.9375 6.375 8.86328 6.375 10C6.375 11.1367 5.44922 12.0625 4.3125 12.0625ZM14.625 17.5938C13.9523 17.5938 13.4062 17.0477 13.4062 16.375C13.4062 15.7023 13.9523 15.1562 14.625 15.1562C15.2977 15.1562 15.8438 15.7023 15.8438 16.375C15.8438 17.0477 15.2977 17.5938 14.625 17.5938Z" ></path>
  </symbol>
  <symbol  xmlns="http://www.w3.org/2000/svg" viewBox="0 0 20 20" id="Vector2">
    <path d="M18.9367 4.87422L15.1258 1.06328C14.95 0.8875 14.7344 0.758594 14.5 0.688281V0.625H1.375C0.960156 0.625 0.625 0.960156 0.625 1.375V18.625C0.625 19.0398 0.960156 19.375 1.375 19.375H18.625C19.0398 19.375 19.375 19.0398 19.375 18.625V5.93359C19.375 5.53516 19.218 5.15547 18.9367 4.87422ZM7 2.3125H13V4.75H7V2.3125ZM17.6875 17.6875H2.3125V2.3125H5.5V5.5C5.5 5.91484 5.83516 6.25 6.25 6.25H13.75C14.1648 6.25 14.5 5.91484 14.5 5.5V2.82344L17.6875 6.01094V17.6875ZM10 8.35938C8.13672 8.35938 6.625 9.87109 6.625 11.7344C6.625 13.5977 8.13672 15.1094 10 15.1094C11.8633 15.1094 13.375 13.5977 13.375 11.7344C13.375 9.87109 11.8633 8.35938 10 8.35938ZM10 13.6094C8.96406 13.6094 8.125 12.7703 8.125 11.7344C8.125 10.6984 8.96406 9.85938 10 9.85938C11.0359 9.85938 11.875 10.6984 11.875 11.7344C11.875 12.7703 11.0359 13.6094 10 13.6094Z" ></path>
  </symbol>
  <symbol  xmlns="http://www.w3.org/2000/svg" viewBox="0 0 22 22" id="Vector1">
    <path d="M9.87519 11C9.87519 11.2984 9.99372 11.5845 10.2047 11.7955C10.4157 12.0065 10.7018 12.125 11.0002 12.125C11.2986 12.125 11.5847 12.0065 11.7957 11.7955C12.0067 11.5845 12.1252 11.2984 12.1252 11C12.1252 10.7016 12.0067 10.4155 11.7957 10.2045C11.5847 9.99353 11.2986 9.875 11.0002 9.875C10.7018 9.875 10.4157 9.99353 10.2047 10.2045C9.99372 10.4155 9.87519 10.7016 9.87519 11ZM14.5627 11C14.5627 11.2984 14.6812 11.5845 14.8922 11.7955C15.1032 12.0065 15.3893 12.125 15.6877 12.125C15.9861 12.125 16.2722 12.0065 16.4832 11.7955C16.6942 11.5845 16.8127 11.2984 16.8127 11C16.8127 10.7016 16.6942 10.4155 16.4832 10.2045C16.2722 9.99353 15.9861 9.875 15.6877 9.875C15.3893 9.875 15.1032 9.99353 14.8922 10.2045C14.6812 10.4155 14.5627 10.7016 14.5627 11ZM5.18769 11C5.18769 11.2984 5.30622 11.5845 5.5172 11.7955C5.72818 12.0065 6.01433 12.125 6.31269 12.125C6.61106 12.125 6.89721 12.0065 7.10819 11.7955C7.31917 11.5845 7.43769 11.2984 7.43769 11C7.43769 10.7016 7.31917 10.4155 7.10819 10.2045C6.89721 9.99353 6.61106 9.875 6.31269 9.875C6.01433 9.875 5.72818 9.99353 5.5172 10.2045C5.30622 10.4155 5.18769 10.7016 5.18769 11ZM20.6846 6.93125C20.1549 5.67266 19.3955 4.54297 18.4275 3.57266C17.4663 2.60796 16.3253 1.84114 15.0689 1.31563C13.7799 0.774219 12.4111 0.5 11.0002 0.5H10.9533C9.53301 0.507031 8.15723 0.788281 6.86348 1.34141C5.61791 1.87232 4.48753 2.64049 3.53535 3.60312C2.57676 4.57109 1.82441 5.69609 1.3041 6.95C0.765038 8.24844 0.493163 9.62891 0.500194 11.0492C0.508147 12.6769 0.893222 14.2806 1.62519 15.7344V19.2969C1.62519 19.5828 1.73878 19.857 1.94097 20.0592C2.14316 20.2614 2.41738 20.375 2.70332 20.375H6.26816C7.72198 21.107 9.32565 21.492 10.9533 21.5H11.0025C12.4064 21.5 13.7682 21.2281 15.0502 20.6961C16.3002 20.1768 17.437 19.419 18.3971 18.4648C19.365 17.5063 20.1268 16.3859 20.6588 15.1367C21.2119 13.843 21.4932 12.4672 21.5002 11.0469C21.5072 9.61953 21.2307 8.23438 20.6846 6.93125ZM17.1432 17.1969C15.5002 18.8234 13.3205 19.7188 11.0002 19.7188H10.9604C9.54707 19.7117 8.14316 19.3602 6.90332 18.6992L6.70644 18.5938H3.40644V15.2938L3.30098 15.0969C2.64004 13.857 2.28848 12.4531 2.28144 11.0398C2.27207 8.70312 3.16504 6.50937 4.80332 4.85703C6.43926 3.20469 8.62598 2.29062 10.9627 2.28125H11.0025C12.1744 2.28125 13.3111 2.50859 14.3822 2.95859C15.4275 3.39687 16.365 4.02734 17.1713 4.83359C17.9752 5.6375 18.608 6.57734 19.0463 7.62266C19.501 8.70547 19.7283 9.85391 19.7236 11.0398C19.7096 13.3742 18.7932 15.5609 17.1432 17.1969Z" ></path>
  </symbol>
  <symbol  xmlns="http://www.w3.org/2000/svg" viewBox="0 0 20 20" id="Vector">
    <path d="M18.7633 10.5094C19.157 9.98909 19.375 9.35159 19.375 8.6883C19.375 7.63596 18.7867 6.63987 17.8398 6.0844C17.5961 5.94142 17.3185 5.86617 17.0359 5.86643H11.4156L11.5563 2.98596C11.5891 2.28987 11.343 1.62893 10.8648 1.12502C10.6302 0.876652 10.3471 0.679038 10.0331 0.544395C9.71905 0.409752 9.38074 0.34094 9.03906 0.342211C7.82031 0.342211 6.74219 1.16252 6.41875 2.33674L4.40547 9.62581H1.375C0.960156 9.62581 0.625 9.96096 0.625 10.3758V18.9071C0.625 19.3219 0.960156 19.6571 1.375 19.6571H15.468C15.6836 19.6571 15.8945 19.6149 16.0891 19.5305C17.2047 19.0547 17.9242 17.9649 17.9242 16.7555C17.9242 16.4602 17.882 16.1696 17.7977 15.8883C18.1914 15.368 18.4094 14.7305 18.4094 14.0672C18.4094 13.7719 18.3672 13.4813 18.2828 13.2C18.6766 12.6797 18.8945 12.0422 18.8945 11.3789C18.8898 11.0836 18.8477 10.7906 18.7633 10.5094ZM2.3125 17.9696V11.3133H4.21094V17.9696H2.3125ZM17.2281 9.69612L16.7148 10.1414L17.0406 10.7367C17.148 10.9328 17.2036 11.153 17.2023 11.3766C17.2023 11.7633 17.0336 12.1313 16.743 12.3844L16.2297 12.8297L16.5555 13.425C16.6628 13.6211 16.7185 13.8413 16.7172 14.0649C16.7172 14.4516 16.5484 14.8196 16.2578 15.0727L15.7445 15.518L16.0703 16.1133C16.1776 16.3094 16.2333 16.5296 16.232 16.7531C16.232 17.2781 15.9227 17.7516 15.4445 17.9672H5.71094V11.2383L8.04297 2.78909C8.1031 2.57252 8.23219 2.38147 8.41066 2.24486C8.58914 2.10825 8.80728 2.03354 9.03203 2.03205C9.21016 2.03205 9.38594 2.08362 9.52656 2.18909C9.75859 2.36252 9.88281 2.62502 9.86875 2.90393L9.64375 7.55393H17.0125C17.4297 7.8094 17.6875 8.24065 17.6875 8.6883C17.6875 9.07502 17.5188 9.44065 17.2281 9.69612Z"></path>
  </symbol>
   <symbol  xmlns="http://www.w3.org/2000/svg" viewBox="0 0 22 22" id="exit">
    <path d="M15.5371 1.92734C15.5084 1.91289 15.4765 1.90604 15.4444 1.90747C15.4123 1.90889 15.3811 1.91854 15.3538 1.93548C15.3265 1.95242 15.3041 1.97608 15.2885 2.00421C15.273 2.03233 15.265 2.06397 15.2652 2.09609V3.60078C15.2652 3.72969 15.3332 3.84922 15.441 3.91953C15.9695 4.2522 16.4586 4.64376 16.8988 5.08672C17.6652 5.85547 18.2676 6.74844 18.6871 7.74219C19.121 8.77093 19.3434 9.87648 19.341 10.993C19.341 12.1203 19.1207 13.2148 18.6871 14.2438C18.268 15.2361 17.6608 16.1378 16.8988 16.8992C16.1394 17.6631 15.2382 18.2713 14.2457 18.6898C13.2191 19.1258 12.1246 19.3461 10.9996 19.3461C9.8746 19.3461 8.78007 19.1258 7.7535 18.6898C6.76102 18.2713 5.85978 17.6631 5.10038 16.8992C4.33843 16.1378 3.73115 15.2361 3.3121 14.2438C2.87823 13.215 2.65584 12.1095 2.65819 10.993C2.65819 9.86563 2.8785 8.77109 3.3121 7.74219C3.73163 6.74844 4.33397 5.85547 5.10038 5.08672C5.54569 4.64141 6.03319 4.25234 6.55819 3.91953C6.66835 3.85156 6.73397 3.72969 6.73397 3.60078V2.09375C6.73397 1.95312 6.58632 1.86406 6.4621 1.925C3.18319 3.575 0.921473 6.95234 0.874598 10.8664C0.808973 16.4633 5.38632 21.1133 10.9808 21.125C16.5824 21.1367 21.1246 16.5945 21.1246 10.9906C21.1246 7.025 18.8512 3.59141 15.5371 1.92734ZM10.2496 12.125H11.7496C11.8527 12.125 11.9371 12.0406 11.9371 11.9375V1.0625C11.9371 0.959375 11.8527 0.875 11.7496 0.875H10.2496C10.1465 0.875 10.0621 0.959375 10.0621 1.0625V11.9375C10.0621 12.0406 10.1465 12.125 10.2496 12.125Z"></path>
  </symbol>
  <symbol  xmlns="http://www.w3.org/2000/svg" viewBox="0 0 11 14" id="fire">
    <path d="M10.5328 6.32654C10.2295 5.64382 9.78851 5.03104 9.2375 4.52654L8.78281 4.10936C8.76737 4.09558 8.74879 4.0858 8.72869 4.08088C8.7086 4.07597 8.6876 4.07606 8.66754 4.08115C8.64749 4.08624 8.62899 4.09617 8.61367 4.11008C8.59835 4.12399 8.58668 4.14145 8.57969 4.16092L8.37656 4.74373C8.25 5.10936 8.01719 5.48279 7.6875 5.84998C7.66563 5.87342 7.64063 5.87967 7.62344 5.88123C7.60625 5.88279 7.57969 5.87967 7.55625 5.85779C7.53437 5.83904 7.52344 5.81092 7.525 5.78279C7.58281 4.84217 7.30156 3.78123 6.68594 2.62654C6.17656 1.66717 5.46875 0.918731 4.58437 0.396856L3.93906 0.017169C3.85469 -0.032831 3.74688 0.0327939 3.75156 0.131231L3.78594 0.881231C3.80937 1.39373 3.75 1.84686 3.60938 2.22342C3.4375 2.68436 3.19062 3.11248 2.875 3.49686C2.65535 3.76399 2.40639 4.0056 2.13281 4.21717C1.47391 4.72368 0.938146 5.37269 0.565625 6.11561C0.194022 6.865 0.000453376 7.69007 0 8.52654C0 9.26404 0.145312 9.97811 0.432812 10.6515C0.710416 11.2999 1.11103 11.8884 1.6125 12.3844C2.11875 12.8844 2.70625 13.2781 3.36094 13.5515C4.03906 13.8359 4.75781 13.9797 5.5 13.9797C6.24219 13.9797 6.96094 13.8359 7.63906 13.5531C8.29214 13.2813 8.88601 12.8848 9.3875 12.3859C9.89375 11.8859 10.2906 11.3015 10.5672 10.6531C10.8543 9.98151 11.0015 9.25848 11 8.52811C11 7.76561 10.8438 7.02498 10.5328 6.32654ZM8.64062 11.6281C7.80156 12.4594 6.6875 12.9156 5.5 12.9156C4.3125 12.9156 3.19844 12.4594 2.35938 11.6281C1.52344 10.7984 1.0625 9.69842 1.0625 8.52811C1.0625 7.84842 1.21563 7.19686 1.51719 6.59061C1.81094 5.99842 2.24844 5.46873 2.77969 5.06092C3.1185 4.80185 3.4258 4.50398 3.69531 4.17342C4.08594 3.69686 4.39219 3.16561 4.60469 2.59529C4.69185 2.36004 4.75519 2.11663 4.79375 1.86873C5.17031 2.21561 5.48594 2.63436 5.75 3.12498C6.27187 4.10311 6.5125 4.97342 6.46562 5.71404C6.45443 5.88848 6.48291 6.06318 6.54895 6.22501C6.61498 6.38685 6.71684 6.53161 6.84688 6.64842C6.95956 6.75021 7.09135 6.8286 7.23458 6.87902C7.37782 6.92945 7.52965 6.95091 7.68125 6.94217C7.98906 6.92654 8.27187 6.79061 8.47812 6.56092C8.68594 6.32811 8.86563 6.09061 9.01562 5.84842C9.23438 6.12811 9.41719 6.43279 9.5625 6.76092C9.81094 7.32029 9.9375 7.91561 9.9375 8.52811C9.9375 9.69842 9.47656 10.8 8.64062 11.6281Z" ></path>
  </symbol>
  <symbol  xmlns="http://www.w3.org/2000/svg" viewBox="0 0 14 12" id="image">
    <path d="M13.5 0.5H0.5C0.223437 0.5 0 0.723437 0 1V11C0 11.2766 0.223437 11.5 0.5 11.5H13.5C13.7766 11.5 14 11.2766 14 11V1C14 0.723437 13.7766 0.5 13.5 0.5ZM12.875 10.375H1.125V9.75156L3.28906 7.18437L5.63438 9.96562L9.28281 5.64062L12.875 9.9V10.375ZM12.875 8.34688L9.37813 4.2C9.32812 4.14062 9.2375 4.14062 9.1875 4.2L5.63438 8.4125L3.38438 5.74531C3.33438 5.68594 3.24375 5.68594 3.19375 5.74531L1.125 8.19844V1.625H12.875V8.34688ZM3.75 5.125C3.93057 5.125 4.10937 5.08943 4.27619 5.02033C4.44301 4.95123 4.59459 4.84995 4.72227 4.72227C4.84995 4.59459 4.95123 4.44301 5.02033 4.27619C5.08943 4.10937 5.125 3.93057 5.125 3.75C5.125 3.56943 5.08943 3.39063 5.02033 3.22381C4.95123 3.05699 4.84995 2.90541 4.72227 2.77773C4.59459 2.65005 4.44301 2.54877 4.27619 2.47967C4.10937 2.41057 3.93057 2.375 3.75 2.375C3.38533 2.375 3.03559 2.51987 2.77773 2.77773C2.51987 3.03559 2.375 3.38533 2.375 3.75C2.375 4.11467 2.51987 4.46441 2.77773 4.72227C3.03559 4.98013 3.38533 5.125 3.75 5.125ZM3.75 3.3125C3.99219 3.3125 4.1875 3.50781 4.1875 3.75C4.1875 3.99219 3.99219 4.1875 3.75 4.1875C3.50781 4.1875 3.3125 3.99219 3.3125 3.75C3.3125 3.50781 3.50781 3.3125 3.75 3.3125Z" ></path>
  </symbol>
  <symbol  xmlns="http://www.w3.org/2000/svg" viewBox="0 0 14 12" id="video">
    <path d="M13.25 2.72344L11.25 3.875V1.5C11.25 0.948438 10.8016 0.5 10.25 0.5H1C0.448438 0.5 0 0.948438 0 1.5V10.5C0 11.0516 0.448438 11.5 1 11.5H10.25C10.8016 11.5 11.25 11.0516 11.25 10.5V8.125L13.25 9.27656C13.5828 9.46875 14 9.22812 14 8.84531V3.15625C14 2.77187 13.5828 2.53125 13.25 2.72344ZM10.125 10.375H1.125V1.625H10.125V10.375ZM12.875 7.76562L11.25 6.83125V5.17031L12.875 4.23438V7.76562ZM2.25 3.625H4C4.06875 3.625 4.125 3.56875 4.125 3.5V2.75C4.125 2.68125 4.06875 2.625 4 2.625H2.25C2.18125 2.625 2.125 2.68125 2.125 2.75V3.5C2.125 3.56875 2.18125 3.625 2.25 3.625Z" ></path>
  </symbol>
</svg>